<svg xmlns="http://www.w3.org/2000/svg" viewBox="0 0 310.64 64.58"><defs><style>.cls-1{fill:#333;}.cls-2{fill:#e25555;}</style></defs><g id="Layer_2" data-name="Layer 2"><g id="Layer_1-2" data-name="Layer 1"><path class="cls-1" d="M114.64,14.64h7V30.82l13.24-16.18h8.56L129.09,32.13l15.38,18.65h-9l-13.81-17v17h-7Z"/><path class="cls-1" d="M159.7,51.46c-10.39,0-15.59-5.88-15.59-14,0-7.41,4.83-13.81,13.39-13.81,7.46,0,11.82,6.09,11.82,13.18a20.5,20.5,0,0,1-.21,3.1h-18c.84,3.73,3.84,5.78,9.3,5.78a14,14,0,0,0,7.67-2.16v5.94C166.22,50.78,162.54,51.46,159.7,51.46Zm-2.46-22.11c-3.42,0-5.62,2.26-6.2,5.88H162.7C162.28,31.66,160.28,29.35,157.24,29.35Z"/><path class="cls-1" d="M186,31.08c-3.2,0-5.41,1.68-5.41,6.62V50.78h-6.77V24.36h6.4l.06,5.72c1.15-3.46,3.31-6.14,7.09-6.14a4.35,4.35,0,0,1,3.15,1.21l-1.26,6.77A6.72,6.72,0,0,0,186,31.08Z"/><path class="cls-1" d="M193.31,13.07h6.88v7h-6.88Zm.06,11.29h6.77V50.78h-6.77Z"/><path class="cls-1" d="M221.73,31.4a11.34,11.34,0,0,0-6.36-1.95c-2.73,0-4,.84-4,2.26,0,1,.47,1.58,2.47,2.37l4.2,1.68c3.83,1.52,5.93,3.41,5.93,7.24,0,5.31-4.15,8.51-10.55,8.51-2.95,0-6.46-.73-8.15-2.31V43.11a13.61,13.61,0,0,0,8.2,2.73c2.57,0,3.88-.84,3.88-2.36,0-1.16-.68-1.58-2.67-2.37l-4.31-1.68c-3.47-1.36-5.67-3.31-5.67-7.35,0-4.94,4.15-8.35,11.24-8.35a13.15,13.15,0,0,1,7.3,1.94Z"/><path class="cls-1" d="M237.8,51.2a19.24,19.24,0,0,1-10.46-2.68V41.74A19.13,19.13,0,0,0,238,44.9c3.68,0,6.88-1.69,6.88-5.57,0-4.31-3.73-5.73-8.14-5.73A29.8,29.8,0,0,0,228.08,35l2.52-20.33h20.12L249,21.1H236.06l-.89,7a19.43,19.43,0,0,1,4.36-.47c6.83,0,12.39,3.94,12.39,11.19C251.92,46.42,246.3,51.2,237.8,51.2Z"/><path class="cls-1" d="M256.7,16.74a17,17,0,0,1,9.72-2.57c6.77,0,11.92,3.2,11.92,9.66,0,4-1.47,7.09-6.62,11.66l-5.25,4.63A11.6,11.6,0,0,0,263,44.48h17.18l-1.73,6.3h-23.9V49.25c0-4.46,2.26-8.77,8.14-14.18l4.41-4c3.57-3.31,4.15-4.41,4.15-6.51,0-2.73-2.57-4-6.36-4a17.79,17.79,0,0,0-10,3.09Z"/><path class="cls-1" d="M310.64,32.61c0,12.23-5.2,18.8-14.29,18.8s-14.18-6.57-14.18-18.8S287.32,14,296.35,14,310.64,20.47,310.64,32.61Zm-21.38,0c0,8.56,2.68,12.44,7.09,12.44s7.2-3.88,7.2-12.44-2.73-12.24-7.2-12.24S289.26,24.15,289.26,32.61Z"/><path class="cls-1" d="M284.56,60.61h1.72v1.81h-1.72Z"/><path class="cls-1" d="M290.4,57.69a1.66,1.66,0,0,0-1.85,1.66,1.86,1.86,0,0,0,2.08,1.88,2.62,2.62,0,0,0,1.3-.37v1.35a3.21,3.21,0,0,1-1.53.35A3.14,3.14,0,0,1,287,59.43c0-2.46,2.08-3.11,3.44-3.11a2.63,2.63,0,0,1,1.55.39L291.63,58A2.34,2.34,0,0,0,290.4,57.69Z"/><path class="cls-1" d="M298.81,59.42a3.21,3.21,0,1,1-3.21-3.17A3,3,0,0,1,298.81,59.42Zm-4.88,0a1.67,1.67,0,1,0,1.67-1.84A1.68,1.68,0,0,0,293.93,59.42Z"/><path class="cls-1" d="M299.76,56.44h1.48l0,1a1.71,1.71,0,0,1,1.64-1.07,1.73,1.73,0,0,1,1.71,1.1,1.91,1.91,0,0,1,1.77-1.1,1.85,1.85,0,0,1,1.88,2.07v4h-1.54V58.78c0-.68-.31-1.08-.9-1.08s-1.05.41-1.05,1.29v3.43h-1.53V58.78c0-.68-.31-1.08-.9-1.08s-1,.41-1,1.29v3.43h-1.53Z"/><path class="cls-2" d="M56,1.66a29.9,29.9,0,1,0,29.9,29.9A29.9,29.9,0,0,0,56,1.66Zm0,53.89a24,24,0,1,1,24-24A24,24,0,0,1,56,55.55Z"/><path class="cls-2" d="M50.59,31.27s-2.34-.18-2.61.16a2.19,2.19,0,0,0-.37.64,2.16,2.16,0,0,1-.9-2A2.8,2.8,0,0,1,47.43,28a14.31,14.31,0,0,0-1.14-7.3c-1.72-4.31-3.23-4.7-5.29-5a3.38,3.38,0,0,1-3.14-4.31c.54-2.55,2.5-3.58,5.44-3.82s4.46,1.52,6.12,4,2.89,3.92,3,7.69-.05,5.58.93,7.15,2.21,3.87.59,5.24c-.54-.78-.9-.63-1.61-.58s-1.12.11-1.12.11l-2-16.58Z"/><path class="cls-2" d="M48.25,31.82s-.29,1.14.4,1.49a1.68,1.68,0,0,0,.8.08v1.25a33.52,33.52,0,0,1-4.23,0,.35.35,0,0,0,.23.32s2.11.48,8,.18A45.1,45.1,0,0,0,64,33.33a6.94,6.94,0,0,0,2.13-3.07,51,51,0,0,1-13.58,3.9c0-.94,0-1,0-1s1.09,0,.79-1.56Z"/><path class="cls-2" d="M80.92,15s3,6.27-3.26,12.4-17.53,8.65-26,8.77-13-1.75-13.53-5.63,4.51-4.26,4.51-4.26c-11.52.37-4.1,8.37-3.29,12.69,1.55,8.26,6.06,4,8.06,9.62.15.41.23,3.91.28,9.16h7.75c.27-6.63.45-11.12.48-11.43C56,45,64.64,44.67,66.39,44s4.76-4.51,12-13.65S80.92,15,80.92,15Z"/><path class="cls-2" d="M40.57,64.58A37.36,37.36,0,0,0,31.33,57a9.08,9.08,0,0,0-4.47-1.18H12.64a7.58,7.58,0,0,1-7.58-7.58V16.35a7.58,7.58,0,0,1,7.58-7.59H26.57a6.23,6.23,0,0,0,3-.78,38.66,38.66,0,0,0,10-8,25.37,25.37,0,0,1-9.58,3.57,14.38,14.38,0,0,1-2,.13H12.64A12.64,12.64,0,0,0,0,16.35v31.9A12.64,12.64,0,0,0,12.64,60.89h17a8.11,8.11,0,0,1,.86,0A25.26,25.26,0,0,1,40.57,64.58Z"/><path class="cls-2" d="M87.88,3.7H83.37a11.43,11.43,0,0,1-1.65-.11A25.25,25.25,0,0,1,72,0a37.31,37.31,0,0,0,8.77,7.29,10.51,10.51,0,0,0,5.36,1.47h1.77a7.58,7.58,0,0,1,7.58,7.59v31.9a7.58,7.58,0,0,1-7.58,7.58H85.19a10.36,10.36,0,0,0-5.29,1.44,37.17,37.17,0,0,0-8.8,7.31,25.7,25.7,0,0,1,8.06-3.29,18.71,18.71,0,0,1,4-.4h4.77a12.64,12.64,0,0,0,12.64-12.64V16.35A12.64,12.64,0,0,0,87.88,3.7Z"/></g></g></svg>